<?xml version="1.0" encoding="utf-8"?>
<!-- Generator: Adobe Illustrator 20.1.0, SVG Export Plug-In . SVG Version: 6.00 Build 0)  -->
<!DOCTYPE svg PUBLIC "-//W3C//DTD SVG 1.1//EN" "http://www.w3.org/Graphics/SVG/1.1/DTD/svg11.dtd">
<svg version="1.1" id="Calque_1" xmlns="http://www.w3.org/2000/svg" xmlns:xlink="http://www.w3.org/1999/xlink" x="0px" y="0px"
	 viewBox="0 0 87.5 40.4" style="enable-background:new 0 0 87.5 40.4;" xml:space="preserve">
<style type="text/css">
	.st0{clip-path:url(#SVGID_2_);}
	.st1{clip-path:url(#SVGID_2_);fill:#BF252A;}
</style>
<g>
	<defs>
		<rect id="SVGID_1_" width="87.5" height="40.4"/>
	</defs>
	<clipPath id="SVGID_2_">
		<use xlink:href="#SVGID_1_"  style="overflow:visible;"/>
	</clipPath>
	<path class="st0" d="M48.9,5.6c0-0.5,0-0.9,0-1.4c0-0.5,0-0.9,0-1.4c0-0.3-0.2-0.7-0.7-1.2c-0.5-0.5-1.3-0.8-2.7-0.9V0.2
		c1.3,0.1,7.1,0,7.1,0l-0.1,25.1H64c0.2,0,0.4-0.1,0.7-0.2c0.3-0.1,0.5-0.3,0.7-0.5c0.2-0.2,0.4-0.5,0.6-0.9
		c0.2-0.4,0.3-0.9,0.4-1.5H67l-0.3,5.6H48.8L48.9,5.6z"/>
	<path class="st0" d="M70.4,27.8V5.6V4.2c0-0.5,0-0.9,0-1.4c0-0.2-0.1-0.4-0.2-0.6c-0.1-0.2-0.3-0.4-0.5-0.6c-0.3-0.2-0.6-0.4-1-0.6
		c-0.4-0.2-1-0.3-1.6-0.4V0.2h3.3h1.6c0.6,0,1.5,0,2.7,0s2.8,0,4.9-0.1c2,0,4.7-0.1,8.1-0.1v5.5l-0.6,0c-0.1-0.6-0.2-1.1-0.4-1.5
		C86.4,3.5,86.2,3.2,86,3c-0.2-0.2-0.5-0.4-0.7-0.5c-0.2-0.1-0.5-0.1-0.6-0.1L74.1,2.2c0.1,0.6,0.1,1.1,0.1,1.7v1.7v6.3H82
		c0.4,0,0.8-0.2,1.3-0.6c0.5-0.4,0.9-1.3,1-2.5l0.6,0v8.5l-0.6,0c-0.2-1.2-0.5-2-1-2.5c-0.5-0.4-1-0.6-1.3-0.6h-7.8v13.7H70.4z"/>
	<path class="st0" d="M44.3,22.2c-0.1,0.6-0.2,1.1-0.4,1.5c-0.2,0.4-0.4,0.7-0.6,0.9c-0.2,0.2-0.5,0.4-0.7,0.5
		c-0.2,0.1-0.5,0.1-0.6,0.1H29.9V14h7.6c0.4,0,0.8,0.2,1.3,0.6c0.5,0.4,0.9,1.3,1,2.5l0.6,0V8.7l-0.6,0c-0.2,1.2-0.5,2-1,2.5
		c-0.5,0.4-1,0.6-1.3,0.6h-7.6c0,0,0.1-8.9,0-9.5h10.4c0.2,0,0.4,0,0.6,0.1c0.2,0.1,0.5,0.3,0.7,0.5c0.2,0.2,0.4,0.5,0.6,0.9
		c0.2,0.4,0.3,0.9,0.4,1.5l0.5,0V0.1l-20.6,0v0.5c0.7,0.1,1.2,0.2,1.6,0.4c0.4,0.2,0.8,0.4,1,0.6c0.3,0.2,0.4,0.4,0.6,0.6
		C26,2.4,26,2.6,26,2.8l0,15.7l3.4,9.3c4.8,0,13.3,0,15.4,0v-5.6L44.3,22.2z"/>
	<path class="st1" d="M26.3,40.4l1-2.2l2.2,1L15.3,0.1l0,0l-3.7,0l-3.2,0v0.5c3,0.4,3.9,1.6,4.1,2L26.3,40.4L26.3,40.4z"/>
	<path class="st0" d="M15.7,17.3L15,15.5l-0.1-0.2H9.4l2.8-7.1L12.2,8v0l0,0l-1.4-3.9l0,0l-0.6-1.7L0,27.8h1.3h2.9l0-0.1l0.6-1.6
		l3.6-8.8h5.6c0.3,0,1.1,0.3,1.9,1.8l0.3-0.1L15.7,17.3z"/>
</g>
</svg>
