<?xml version="1.0" encoding="UTF-8" standalone="no"?>
<!-- Generator: Adobe Illustrator 19.0.0, SVG Export Plug-In . SVG Version: 6.00 Build 0)  -->

<svg
   xmlns:dc="http://purl.org/dc/elements/1.1/"
   xmlns:cc="http://creativecommons.org/ns#"
   xmlns:rdf="http://www.w3.org/1999/02/22-rdf-syntax-ns#"
   xmlns:svg="http://www.w3.org/2000/svg"
   xmlns="http://www.w3.org/2000/svg"
   xmlns:sodipodi="http://sodipodi.sourceforge.net/DTD/sodipodi-0.dtd"
   xmlns:inkscape="http://www.inkscape.org/namespaces/inkscape"
   version="1.1"
   id="Capa_1"
   x="0px"
   y="0px"
   viewBox="0 0 511.999 511.999"
   style="enable-background:new 0 0 511.999 511.999;"
   xml:space="preserve"
   sodipodi:docname="bible.svg"
   inkscape:version="0.92.5 (2060ec1f9f, 2020-04-08)"><metadata
   id="metadata49"><rdf:RDF><cc:Work
       rdf:about=""><dc:format>image/svg+xml</dc:format><dc:type
         rdf:resource="http://purl.org/dc/dcmitype/StillImage" /></cc:Work></rdf:RDF></metadata><defs
   id="defs47" /><sodipodi:namedview
   pagecolor="#ffffff"
   bordercolor="#666666"
   borderopacity="1"
   objecttolerance="10"
   gridtolerance="10"
   guidetolerance="10"
   inkscape:pageopacity="0"
   inkscape:pageshadow="2"
   inkscape:window-width="743"
   inkscape:window-height="480"
   id="namedview45"
   showgrid="false"
   inkscape:zoom="0.46093841"
   inkscape:cx="255.9995"
   inkscape:cy="255.9995"
   inkscape:window-x="0"
   inkscape:window-y="27"
   inkscape:window-maximized="0"
   inkscape:current-layer="Capa_1" />
<g
   id="g6"
   style="fill:#ffffff">
	<g
   id="g4"
   style="fill:#ffffff">
		<path
   d="m 442.18,67.234 c 4.272,0 7.757,-3.486 7.757,-7.757 v -31.03 c 0,-0.053 -0.007,-0.105 -0.008,-0.158 C 449.844,12.677 437.121,0 421.489,0 H 111.194 C 84.103,0 62.062,22.04 62.062,49.131 v 393.054 c 0,27.091 22.04,49.131 49.131,49.131 h 33.614 v 12.925 c 0,0.016 0.002,0.032 0.002,0.049 0.002,0.176 0.014,0.353 0.027,0.53 0.007,0.088 0.009,0.177 0.018,0.265 0.015,0.133 0.039,0.267 0.062,0.4 0.021,0.131 0.039,0.263 0.067,0.392 0.02,0.088 0.046,0.176 0.069,0.265 0.042,0.169 0.086,0.337 0.139,0.503 0.006,0.016 0.008,0.033 0.014,0.049 0.008,0.025 0.022,0.047 0.031,0.074 0.121,0.351 0.265,0.69 0.432,1.016 0.016,0.032 0.03,0.067 0.047,0.098 0.168,0.315 0.36,0.613 0.568,0.9 0.053,0.072 0.105,0.142 0.159,0.212 0.21,0.27 0.433,0.528 0.676,0.768 0.044,0.043 0.092,0.083 0.137,0.125 0.227,0.213 0.468,0.412 0.719,0.598 0.052,0.037 0.101,0.078 0.154,0.114 0.288,0.201 0.59,0.382 0.905,0.542 0.052,0.027 0.105,0.051 0.158,0.077 0.313,0.152 0.636,0.287 0.972,0.396 0.015,0.005 0.029,0.012 0.044,0.016 0.334,0.107 0.68,0.186 1.032,0.246 0.086,0.015 0.172,0.027 0.259,0.039 0.325,0.045 0.655,0.075 0.992,0.078 0.025,0 0.049,0.006 0.074,0.006 0.022,0 0.044,-0.005 0.066,-0.005 0.35,-0.003 0.692,-0.035 1.028,-0.083 0.079,-0.011 0.158,-0.022 0.236,-0.035 0.372,-0.065 0.735,-0.153 1.088,-0.268 0.012,-0.004 0.024,-0.005 0.036,-0.009 l 28.576,-9.525 28.576,9.525 c 0.012,0.004 0.024,0.005 0.036,0.009 0.353,0.115 0.716,0.203 1.088,0.268 0.079,0.013 0.158,0.024 0.236,0.035 0.336,0.047 0.679,0.08 1.028,0.083 0.021,0 0.043,0.005 0.066,0.005 0.025,0 0.049,-0.006 0.074,-0.006 0.337,-0.003 0.667,-0.032 0.992,-0.078 0.087,-0.012 0.172,-0.024 0.258,-0.039 0.352,-0.061 0.699,-0.139 1.034,-0.246 0.013,-0.004 0.026,-0.01 0.039,-0.014 0.337,-0.11 0.663,-0.246 0.978,-0.399 0.052,-0.025 0.103,-0.049 0.154,-0.074 0.316,-0.163 0.62,-0.343 0.909,-0.546 0.05,-0.035 0.098,-0.074 0.147,-0.111 0.255,-0.186 0.497,-0.388 0.726,-0.603 0.043,-0.041 0.09,-0.079 0.132,-0.121 0.244,-0.239 0.468,-0.499 0.679,-0.77 0.053,-0.07 0.105,-0.139 0.156,-0.21 0.208,-0.288 0.401,-0.586 0.569,-0.901 0.017,-0.031 0.03,-0.066 0.047,-0.097 0.169,-0.326 0.312,-0.667 0.433,-1.017 0.009,-0.026 0.023,-0.049 0.031,-0.074 0.006,-0.016 0.008,-0.033 0.014,-0.049 0.053,-0.165 0.097,-0.334 0.139,-0.503 0.022,-0.089 0.049,-0.177 0.069,-0.265 0.027,-0.129 0.046,-0.261 0.067,-0.392 0.022,-0.133 0.046,-0.267 0.062,-0.4 0.009,-0.088 0.011,-0.177 0.018,-0.265 0.013,-0.178 0.025,-0.355 0.027,-0.53 0,-0.017 0.002,-0.033 0.002,-0.049 v -12.929 h 219.8 c 4.285,0 7.757,-3.473 7.757,-7.757 0,-4.285 -3.473,-7.757 -7.757,-7.757 h -12.927 v -68.313 c 11.869,-3.374 20.602,-14.273 20.676,-27.192 0.001,-0.055 0.008,-0.108 0.008,-0.163 V 90.506 c 0,-4.283 -3.486,-7.757 -7.757,-7.757 -4.283,0 -7.757,3.475 -7.757,7.757 v 289.539 c 0,0.027 -0.004,0.053 -0.004,0.08 0,7.115 -5.777,12.903 -12.887,12.927 -0.012,0 -0.024,-0.002 -0.036,-0.002 -0.027,0 -0.053,0.004 -0.08,0.004 H 118.95 V 15.515 h 302.538 c 7.129,0 12.929,5.8 12.929,12.929 0,0.027 0.004,0.053 0.004,0.08 v 30.952 c 0.001,4.272 3.476,7.758 7.759,7.758 z M 77.577,49.131 c 0,-15.866 11.051,-29.19 25.858,-32.703 V 83.369 C 93.517,84.949 84.586,89.511 77.577,96.1 Z m 0,82.75 c 0,-15.865 11.051,-29.19 25.858,-32.703 v 56.597 c -9.918,1.581 -18.849,6.143 -25.858,12.732 z m 0,72.407 c 0,-15.865 11.051,-29.189 25.858,-32.702 v 56.595 c -9.918,1.58 -18.849,6.142 -25.858,12.731 z m 0,72.405 c 0,-15.865 11.051,-29.189 25.858,-32.702 v 56.597 c -9.918,1.58 -18.849,6.142 -25.858,12.731 z m 0,72.408 c 0,-15.865 11.051,-29.19 25.858,-32.703 v 77.274 c -9.918,1.58 -18.849,6.142 -25.858,12.731 z m 129.29,144.376 -20.819,-6.939 c -0.058,-0.019 -0.116,-0.03 -0.175,-0.048 -0.136,-0.042 -0.275,-0.08 -0.413,-0.115 -0.112,-0.027 -0.223,-0.053 -0.335,-0.076 -0.136,-0.027 -0.273,-0.051 -0.41,-0.071 -0.118,-0.017 -0.234,-0.033 -0.353,-0.045 -0.131,-0.012 -0.263,-0.021 -0.395,-0.027 -0.124,-0.006 -0.249,-0.011 -0.373,-0.011 -0.124,0 -0.248,0.005 -0.374,0.011 -0.132,0.006 -0.265,0.015 -0.396,0.027 -0.116,0.012 -0.232,0.028 -0.35,0.045 -0.139,0.02 -0.277,0.043 -0.415,0.071 -0.109,0.022 -0.218,0.047 -0.327,0.075 -0.142,0.035 -0.284,0.075 -0.424,0.118 -0.056,0.017 -0.112,0.028 -0.168,0.046 l -20.819,6.939 v -43.539 h 46.546 z m 206.87,-84.909 v 67.227 H 222.382 v -25.857 h 23.27 c 4.285,0 7.757,-3.473 7.757,-7.757 0,-4.285 -3.473,-7.758 -7.757,-7.758 H 121.535 c -4.285,0 -7.757,3.473 -7.757,7.758 0,4.285 3.473,7.757 7.757,7.757 h 23.272 V 475.8 h -33.614 c -18.536,0 -33.616,-15.08 -33.616,-33.616 0,-18.536 15.08,-33.616 33.616,-33.616 z"
   id="path2"
   inkscape:connector-curvature="0"
   style="fill:#ffffff" />
	</g>
</g>
<g
   id="g12"
   style="fill:#ffffff">
	<g
   id="g10"
   style="fill:#ffffff">
		<path
   d="M 349.089,144.813 H 305.13 v -43.959 c 0,-4.285 -3.473,-7.757 -7.758,-7.757 h -41.373 c -4.285,0 -7.757,3.473 -7.757,7.757 v 43.959 h -43.961 c -4.285,0 -7.757,3.473 -7.757,7.757 v 41.377 c 0,4.285 3.473,7.757 7.757,7.757 h 43.961 v 106.023 c 0,4.285 3.472,7.758 7.757,7.758 h 41.373 c 4.285,0 7.758,-3.473 7.758,-7.758 V 201.701 h 43.959 c 4.285,0 7.757,-3.473 7.757,-7.757 V 152.57 c 0,-4.285 -3.473,-7.757 -7.757,-7.757 z m -7.758,41.373 h -43.959 c -4.285,0 -7.757,3.473 -7.757,7.757 V 299.97 H 263.757 V 193.947 c 0,-4.285 -3.473,-7.757 -7.757,-7.757 H 212.039 V 160.328 H 256 c 4.285,0 7.757,-3.473 7.757,-7.757 v -43.959 h 25.858 v 43.959 c 0,4.285 3.473,7.757 7.757,7.757 h 43.959 z"
   id="path8"
   inkscape:connector-curvature="0"
   style="fill:#ffffff" />
	</g>
</g>
<g
   id="g14"
   style="fill:#ffffff">
</g>
<g
   id="g16"
   style="fill:#ffffff">
</g>
<g
   id="g18"
   style="fill:#ffffff">
</g>
<g
   id="g20"
   style="fill:#ffffff">
</g>
<g
   id="g22"
   style="fill:#ffffff">
</g>
<g
   id="g24"
   style="fill:#ffffff">
</g>
<g
   id="g26"
   style="fill:#ffffff">
</g>
<g
   id="g28"
   style="fill:#ffffff">
</g>
<g
   id="g30"
   style="fill:#ffffff">
</g>
<g
   id="g32"
   style="fill:#ffffff">
</g>
<g
   id="g34"
   style="fill:#ffffff">
</g>
<g
   id="g36"
   style="fill:#ffffff">
</g>
<g
   id="g38"
   style="fill:#ffffff">
</g>
<g
   id="g40"
   style="fill:#ffffff">
</g>
<g
   id="g42"
   style="fill:#ffffff">
</g>
</svg>