<?xml version="1.0" encoding="UTF-8" standalone="no"?>
<!-- Generator: Adobe Illustrator 19.0.0, SVG Export Plug-In . SVG Version: 6.00 Build 0)  -->

<svg
   xmlns:dc="http://purl.org/dc/elements/1.1/"
   xmlns:cc="http://creativecommons.org/ns#"
   xmlns:rdf="http://www.w3.org/1999/02/22-rdf-syntax-ns#"
   xmlns:svg="http://www.w3.org/2000/svg"
   xmlns="http://www.w3.org/2000/svg"
   xmlns:sodipodi="http://sodipodi.sourceforge.net/DTD/sodipodi-0.dtd"
   xmlns:inkscape="http://www.inkscape.org/namespaces/inkscape"
   version="1.1"
   id="Layer_1"
   x="0px"
   y="0px"
   viewBox="0 0 512 512"
   style="enable-background:new 0 0 512 512;"
   xml:space="preserve"
   sodipodi:docname="eucharist.svg"
   inkscape:version="0.92.5 (2060ec1f9f, 2020-04-08)"><metadata
   id="metadata73"><rdf:RDF><cc:Work
       rdf:about=""><dc:format>image/svg+xml</dc:format><dc:type
         rdf:resource="http://purl.org/dc/dcmitype/StillImage" /></cc:Work></rdf:RDF></metadata><defs
   id="defs71" /><sodipodi:namedview
   pagecolor="#ffffff"
   bordercolor="#666666"
   borderopacity="1"
   objecttolerance="10"
   gridtolerance="10"
   guidetolerance="10"
   inkscape:pageopacity="0"
   inkscape:pageshadow="2"
   inkscape:window-width="1920"
   inkscape:window-height="1053"
   id="namedview69"
   showgrid="false"
   inkscape:zoom="0.4609375"
   inkscape:cx="260.33898"
   inkscape:cy="245.15254"
   inkscape:window-x="0"
   inkscape:window-y="27"
   inkscape:window-maximized="1"
   inkscape:current-layer="Layer_1" />
<g
   id="g6"
   style="fill:#ffffff">
	<g
   id="g4"
   style="fill:#ffffff">
		<path
   d="M391,497h-3.098c-3.607-22.64-23.263-40-46.902-40h-18.954c-16.125-10.419-26.346-27.239-28.228-46.138    c11.366-3.377,19.682-13.914,19.682-26.362c0-4.967-1.324-9.727-3.744-13.863c47.53-21.079,78.744-68.428,78.744-121.137V207h2.5    c4.142,0,7.5-3.358,7.5-7.5c0-4.142-3.358-7.5-7.5-7.5H121c-4.142,0-7.5,3.358-7.5,7.5c0,4.142,3.358,7.5,7.5,7.5h2.5v42.5    c0,52.709,31.214,100.058,78.744,121.137c-2.42,4.136-3.744,8.896-3.744,13.863c0,12.448,8.316,22.985,19.682,26.362    c-1.881,18.899-12.103,35.72-28.228,46.138H171c-23.639,0-43.295,17.36-46.902,40H121c-4.142,0-7.5,3.358-7.5,7.5    c0,4.142,3.358,7.5,7.5,7.5h270c4.142,0,7.5-3.358,7.5-7.5C398.5,500.358,395.142,497,391,497z M213.5,384.5    c0-4.26,2.153-8.189,5.76-10.51c2.415-1.554,3.731-4.352,3.388-7.203c-0.343-2.852-2.284-5.257-4.999-6.194    C170.307,344.253,138.5,299.608,138.5,249.5V207h235v42.5c0,50.108-31.807,94.753-79.148,111.094    c-2.715,0.937-4.656,3.342-4.999,6.194c-0.343,2.851,0.973,5.648,3.388,7.203c3.606,2.321,5.76,6.25,5.76,10.51    c0,6.893-5.607,12.5-12.5,12.5h-60C219.107,397,213.5,391.393,213.5,384.5z M233.145,412h45.71    c1.61,17.026,8.681,32.707,20.047,45h-85.805C224.464,444.707,231.535,429.026,233.145,412z M139.383,497    c3.396-14.315,16.278-25,31.617-25h21.06c0.09,0,127.79,0,127.79,0c0.09,0,21.15,0,21.15,0c15.339,0,28.221,10.685,31.617,25    H139.383z"
   id="path2"
   style="fill:#ffffff" />
	</g>
</g>
<g
   id="g12"
   style="fill:#ffffff">
	<g
   id="g10"
   style="fill:#ffffff">
		<path
   d="M286,96h-22.5V75.5c0-4.142-3.358-7.5-7.5-7.5c-4.142,0-7.5,3.358-7.5,7.5V96H226c-4.142,0-7.5,3.358-7.5,7.5    c0,4.142,3.358,7.5,7.5,7.5h22.5v58.5c0,4.142,3.358,7.5,7.5,7.5c4.142,0,7.5-3.358,7.5-7.5V111H286c4.142,0,7.5-3.358,7.5-7.5    C293.5,99.358,290.142,96,286,96z"
   id="path8"
   style="fill:#ffffff" />
	</g>
</g>
<g
   id="g18"
   style="fill:#ffffff">
	<g
   id="g16"
   style="fill:#ffffff">
		<path
   d="M256,0c-67.547,0-122.5,54.953-122.5,122.5c0,17.428,3.59,34.274,10.672,50.068c1.695,3.78,6.131,5.472,9.912,3.776    c3.78-1.695,5.47-6.132,3.775-9.912c-6.21-13.852-9.359-28.632-9.359-43.932C148.5,63.224,196.724,15,256,15    s107.5,48.224,107.5,107.5c0,15.299-3.149,30.08-9.359,43.932c-1.694,3.78-0.004,8.217,3.775,9.912    c0.997,0.447,2.038,0.658,3.064,0.658c2.865,0,5.6-1.65,6.848-4.434c7.082-15.794,10.672-32.64,10.672-50.068    C378.5,54.953,323.547,0,256,0z"
   id="path14"
   style="fill:#ffffff" />
	</g>
</g>
<g
   id="g24"
   style="fill:#ffffff">
	<g
   id="g22"
   style="fill:#ffffff">
		<path
   d="M266.799,360.183h-21.598c-4.142,0-7.5,3.358-7.5,7.5c0,4.142,3.358,7.5,7.5,7.5h21.598c4.142,0,7.5-3.358,7.5-7.5    C274.299,363.541,270.941,360.183,266.799,360.183z"
   id="path20"
   style="fill:#ffffff" />
	</g>
</g>
<g
   id="g30"
   style="fill:#ffffff">
	<g
   id="g28"
   style="fill:#ffffff">
		<circle
   cx="351"
   cy="229.5"
   r="7.5"
   id="circle26"
   style="fill:#ffffff" />
	</g>
</g>
<g
   id="g36"
   style="fill:#ffffff">
	<g
   id="g34"
   style="fill:#ffffff">
		<circle
   cx="321"
   cy="259.5"
   r="7.5"
   id="circle32"
   style="fill:#ffffff" />
	</g>
</g>
<g
   id="g38"
   style="fill:#ffffff">
</g>
<g
   id="g40"
   style="fill:#ffffff">
</g>
<g
   id="g42"
   style="fill:#ffffff">
</g>
<g
   id="g44"
   style="fill:#ffffff">
</g>
<g
   id="g46"
   style="fill:#ffffff">
</g>
<g
   id="g48"
   style="fill:#ffffff">
</g>
<g
   id="g50"
   style="fill:#ffffff">
</g>
<g
   id="g52"
   style="fill:#ffffff">
</g>
<g
   id="g54"
   style="fill:#ffffff">
</g>
<g
   id="g56"
   style="fill:#ffffff">
</g>
<g
   id="g58"
   style="fill:#ffffff">
</g>
<g
   id="g60"
   style="fill:#ffffff">
</g>
<g
   id="g62"
   style="fill:#ffffff">
</g>
<g
   id="g64"
   style="fill:#ffffff">
</g>
<g
   id="g66"
   style="fill:#ffffff">
</g>
</svg>