<?xml version="1.0" encoding="UTF-8" standalone="no"?>
<svg
   xmlns:dc="http://purl.org/dc/elements/1.1/"
   xmlns:cc="http://creativecommons.org/ns#"
   xmlns:rdf="http://www.w3.org/1999/02/22-rdf-syntax-ns#"
   xmlns:svg="http://www.w3.org/2000/svg"
   xmlns="http://www.w3.org/2000/svg"
   xmlns:sodipodi="http://sodipodi.sourceforge.net/DTD/sodipodi-0.dtd"
   xmlns:inkscape="http://www.inkscape.org/namespaces/inkscape"
   id="Capa_1"
   enable-background="new 0 0 511.972 511.972"
   height="512"
   viewBox="0 0 511.972 511.972"
   width="512"
   version="1.1"
   sodipodi:docname="pray.svg"
   inkscape:version="0.92.5 (2060ec1f9f, 2020-04-08)">
  <metadata
     id="metadata11">
    <rdf:RDF>
      <cc:Work
         rdf:about="">
        <dc:format>image/svg+xml</dc:format>
        <dc:type
           rdf:resource="http://purl.org/dc/dcmitype/StillImage" />
      </cc:Work>
    </rdf:RDF>
  </metadata>
  <defs
     id="defs9" />
  <sodipodi:namedview
     pagecolor="#ffffff"
     bordercolor="#666666"
     borderopacity="1"
     objecttolerance="10"
     gridtolerance="10"
     guidetolerance="10"
     inkscape:pageopacity="0"
     inkscape:pageshadow="2"
     inkscape:window-width="1920"
     inkscape:window-height="1053"
     id="namedview7"
     showgrid="false"
     inkscape:zoom="0.4609375"
     inkscape:cx="-93.288136"
     inkscape:cy="245.15254"
     inkscape:window-x="0"
     inkscape:window-y="27"
     inkscape:window-maximized="1"
     inkscape:current-layer="Capa_1" />
  <path
     style="fill:#ffffff"
     d="M 233.36914,4.0058594 C 220.22717,3.7286694 209.245,15.661965 206.73633,28.246094 c -3.6184,11.139673 -9.80566,21.613305 -11.69336,33.154297 1.50918,6.028236 11.50771,5.463389 12.12649,-0.942857 5.79416,-13.034558 9.07406,-27.286779 16.17038,-39.678237 6.48248,-8.140138 21.58277,-5.140167 23.66993,5.283203 3.20034,12.158268 -3.78348,23.815661 -5.2107,35.704636 -6.08097,26.153906 -12.16584,52.306914 -18.24438,78.461384 -14.62559,10.9501 -17.49637,30.30375 -24.39226,46.09309 -6.17298,18.38928 -13.28324,36.87841 -15.86555,56.12956 1.57355,6.15905 12.25216,5.05207 11.96856,-1.68072 7.31204,-29.25461 16.4719,-58.29358 29.69745,-85.42865 3.81128,-6.48576 13.16473,-8.7391 18.9082,-3.36328 7.2858,5.91377 4.96023,16.15366 3.90579,24.10826 -2.50166,28.09993 -7.30779,55.96984 -7.7703,84.13423 2.34751,38.74215 14.21159,77.8702 5.22584,116.60907 -6.58386,29.39244 -26.72674,54.58727 -52.4668,69.75976 -5.15351,4.15179 -8.93054,-5.9002 -13.46393,-8.14406 -25.07664,-23.38735 -50.15198,-46.7761 -75.22942,-70.16258 14.73597,-10.42402 31.10851,-18.95006 44.89257,-30.35547 2.54646,-8.44864 -0.98428,-17.33802 -0.0318,-25.95023 -0.94001,-36.36601 -7.34731,-74.07054 4.42473,-109.47242 5.82778,-20.35144 15.25965,-39.66359 20.82196,-59.93477 -1.06064,-6.61768 -12.19967,-6.20635 -12.27149,0.94141 -12.53264,34.08474 -28.57498,68.54001 -27.43554,105.5664 -0.44231,27.16446 3.01495,54.28362 2.86718,81.42188 -2.57697,6.2237 -10.57138,6.82358 -14.90412,11.40836 -9.1932,6.00679 -18.38807,12.01102 -27.580251,18.01937 -9.264266,-12.63953 -27.95547,-18.51065 -41.779297,-9.78906 -15.28143,8.99441 -19.3138,31.87939 -6.996094,44.94141 9.048292,9.90154 19.966723,17.89525 29.257798,27.57776 29.308724,26.9474 57.788824,54.88265 87.736344,81.08435 15.76783,10.16232 39.79244,1.03226 44.07226,-17.48828 2.87041,-10.34514 -0.3806,-21.91594 -7.88086,-29.53125 26.74771,-15.96062 48.2371,-41.57362 56.71485,-71.89258 8.49498,30.29047 29.93945,55.93867 56.77148,71.92578 -13.98568,12.8674 -10.93896,38.66212 6.08789,47.45508 12.95579,7.52374 30.19312,3.11215 39.27823,-8.30649 36.47237,-34.51293 74.01347,-67.98418 109.76865,-103.17203 11.19863,-15.08571 3.64652,-39.66509 -14.57031,-45.16797 -11.96795,-4.2488 -26.19988,0.44439 -34.22657,10.15039 -6.98322,2.7691 -11.47164,-5.74016 -17.30983,-7.80669 -9.1788,-5.99581 -18.35619,-11.99377 -27.53587,-17.98823 0.62129,-35.57602 5.74468,-71.46855 1.7832,-106.7793 C 370.63406,191.22997 355.5443,160.01422 344.16,127.89184 329.6952,90.896879 315.31129,53.838625 300.6582,16.9375 292.85071,2.6750605 270.72513,-0.68171796 259.75195,11.771484 c -2.04675,1.809505 -3.98253,6.218701 -5.83007,1.757813 C 248.8986,7.5751431 241.23877,3.7017925 233.36914,4.0058594 Z M 278.1582,15.990234 c 10.31019,-0.06109 14.79552,11.043329 17.00335,19.405486 22.03781,58.690302 47.45955,116.1896 66.08568,176.10544 8.50884,33.72888 2.07952,68.70734 1.87777,102.85822 -0.18908,7.91875 -2.24354,16.43594 0.13867,23.86328 7.15153,7.31849 17.19733,10.85478 25.10824,17.26219 6.51659,4.25775 13.03376,8.51462 19.54997,12.77296 -28.62043,26.69003 -57.23765,53.3835 -85.85743,80.07422 -28.963,-16.29676 -51.81193,-45.00006 -56.61438,-78.39933 -6.66832,-37.7861 5.10663,-75.36024 6.59485,-112.97372 -0.48026,-22.76671 -4.74219,-45.72032 -6.43477,-68.44287 -0.78138,-9.96985 -3.34085,-20.16171 -1.97148,-30.14306 2.49961,-9.23903 16.8908,-13.2141 22.15625,-4.30078 8.89391,13.02201 12.25552,28.799 18.24196,43.19929 5.6689,15.62331 9.23083,32.06626 14.44945,47.71477 4.34235,4.67382 13.18307,-1.26716 9.82807,-7.11124 -7.44911,-30.17988 -16.99349,-60.02686 -30.63862,-87.99032 -3.47271,-5.96849 -11.12075,-9.17778 -10.91504,-16.91975 -7.46628,-33.746568 -16.58925,-67.205031 -22.81738,-101.179864 -0.14909,-7.890831 5.70966,-16.163177 14.21484,-15.794922 z m -20.24804,47.550782 c 6.44814,24.206156 11.46628,48.781434 17.35937,73.130864 -7.47091,0.89558 -14.45651,4.66215 -19.2832,10.43945 -4.82767,-5.78322 -11.8246,-9.54375 -19.29688,-10.44141 6.43919,-26.71472 11.98925,-53.648824 19.22071,-80.181639 0.66666,2.350912 1.33333,4.701823 2,7.052735 z m -0.0957,181.845704 c 3.70069,7.67274 3.54715,18.0154 -2.04101,24.9414 -5.5582,-8.68528 -5.37471,-20.24742 0.31836,-28.82617 0.57422,1.29493 1.14843,2.58985 1.72265,3.88477 z M 444.0293,357.95898 c 13.6944,-0.4154 22.89562,18.38619 13.22265,28.54493 -8.88167,10.26525 -20.08475,18.20923 -29.47104,28.00071 -28.68155,26.38599 -56.60835,53.70181 -85.86099,79.40358 -11.02999,6.54669 -27.0614,-2.92017 -26.1875,-15.88476 0.39215,-12.21686 13.0366,-18.27183 20.30785,-26.3035 32.94943,-30.36217 65.18287,-61.59724 98.61793,-91.37814 2.82749,-1.64675 6.10692,-2.43508 9.3711,-2.38282 z m -375.574222,0.0137 c 12.256435,0.2079 18.60857,12.54022 27.421533,19.07524 32.403579,30.64222 65.707499,60.42211 97.535499,91.61616 7.46006,10.55254 -0.94328,27.37586 -14.01953,27.34375 -12.19188,0.40003 -19.07802,-11.74966 -27.58251,-18.42217 -32.5996,-30.71641 -65.890133,-60.75482 -98.013195,-91.94111 -8.05469,-10.99134 0.905561,-28.39087 14.658203,-27.67187 z"
     id="path2"
     inkscape:connector-curvature="0" />
  <path
     style="fill:#ffffff"
     d="m 184.14453,95.691406 c -9.29373,0.111604 -5.35724,16.113914 2.97656,11.367184 5.65367,-3.44739 3.57009,-11.536772 -2.97656,-11.367184 z"
     id="path4"
     inkscape:connector-curvature="0" />
</svg>
