<?xml version="1.0" encoding="UTF-8" standalone="no"?>
<svg
   xmlns:dc="http://purl.org/dc/elements/1.1/"
   xmlns:cc="http://creativecommons.org/ns#"
   xmlns:rdf="http://www.w3.org/1999/02/22-rdf-syntax-ns#"
   xmlns:svg="http://www.w3.org/2000/svg"
   xmlns="http://www.w3.org/2000/svg"
   xmlns:sodipodi="http://sodipodi.sourceforge.net/DTD/sodipodi-0.dtd"
   xmlns:inkscape="http://www.inkscape.org/namespaces/inkscape"
   id="Capa_1"
   enable-background="new 0 0 511.977 511.977"
   height="512"
   viewBox="0 0 511.977 511.977"
   width="512"
   version="1.1"
   sodipodi:docname="search.svg"
   inkscape:version="0.92.5 (2060ec1f9f, 2020-04-08)">
  <metadata
     id="metadata19">
    <rdf:RDF>
      <cc:Work
         rdf:about="">
        <dc:format>image/svg+xml</dc:format>
        <dc:type
           rdf:resource="http://purl.org/dc/dcmitype/StillImage" />
      </cc:Work>
    </rdf:RDF>
  </metadata>
  <defs
     id="defs17" />
  <sodipodi:namedview
     pagecolor="#ffffff"
     bordercolor="#666666"
     borderopacity="1"
     objecttolerance="10"
     gridtolerance="10"
     guidetolerance="10"
     inkscape:pageopacity="0"
     inkscape:pageshadow="2"
     inkscape:window-width="1920"
     inkscape:window-height="1053"
     id="namedview15"
     showgrid="false"
     inkscape:zoom="0.4609375"
     inkscape:cx="-93.288136"
     inkscape:cy="245.15254"
     inkscape:window-x="0"
     inkscape:window-y="27"
     inkscape:window-maximized="1"
     inkscape:current-layer="g12" />
  <g
     id="g12"
     style="fill:#000000">
    <path
       style="fill:#ffffff"
       d="m 260.60352,71.214844 c -55.15125,-0.28279 -107.47135,40.164346 -121.07071,93.637966 -12.79596,47.10236 3.39239,100.70618 41.75835,131.43713 33.66508,27.92316 82.69391,37.02651 123.81236,21.50108 4.81359,-1.72409 9.46497,-3.73559 14.04101,-5.93164 41.28945,40.58027 81.20442,82.62374 123.35156,122.26757 19.80784,13.678 50.71084,5.08583 59.92579,-17.38476 7.7355,-16.88572 2.24606,-38.78672 -12.68747,-50.23276 C 452.013,328.77847 414.29193,291.04716 376.57031,253.31641 401.41806,203.48381 387.9821,137.74611 345.09766,102.05078 321.86351,81.998006 291.3277,70.675241 260.60352,71.214844 Z m 2.01562,17.978515 c 49.87413,-0.715536 96.98209,37.708261 106.22883,86.748621 9.25678,43.45795 -10.61172,91.77386 -48.91596,114.81455 -36.28106,22.86021 -86.23104,22.04607 -120.93861,-3.57284 -33.91968,-23.95638 -52.36103,-68.14859 -44.03062,-109.04488 7.43675,-40.37486 39.16152,-75.40379 79.23178,-85.291703 9.26051,-2.451945 18.84538,-3.676553 28.42458,-3.653748 z M 369.01367,271.21875 c 38.45469,39.05512 78.13676,76.96382 115.8125,116.74805 9.04122,13.81983 -2.18715,35.07784 -18.88476,34.87109 -14.72719,0.47635 -23.33733,-13.6795 -32.85152,-22.47797 -32.65698,-32.66418 -65.31346,-65.32886 -97.97075,-97.99273 12.4519,-9.07339 23.38094,-20.19535 32.25,-32.79297 0.54818,0.54818 1.09635,1.09635 1.64453,1.64453 z"
       id="path2"
       inkscape:connector-curvature="0" />
    <path
       style="fill:#ffffff"
       d="m 71.384766,220.75391 c -20.195497,1.20607 -40.692268,-1.2591 -60.705078,1.13086 -6.8448182,3.57852 -5.8786235,16.29304 2.705078,16.68164 11.04164,1.37815 22.211954,-0.52526 33.312441,0.2692 12.525115,-0.2196 25.614294,1.56072 37.636777,-1.46842 6.44451,-4.50444 3.411328,-17.16555 -5.236328,-16.22461 -2.554297,-0.35022 -5.138116,-0.41097 -7.71289,-0.38867 z"
       id="path4"
       inkscape:connector-curvature="0" />
    <path
       style="fill:#ffffff"
       d="m 95.386719,284.75391 c -27.995433,1.0039 -56.225741,-0.85504 -84.06836,0.81836 -7.4188749,3.06511 -6.8718865,16.62962 2.095703,16.99804 10.723308,1.428 21.578909,-0.55703 32.357417,0.28639 20.575649,-0.25901 41.381467,1.21493 61.744141,-0.97779 7.34599,-3.89932 4.64032,-17.78566 -4.46679,-16.74219 -2.53836,-0.34079 -5.10405,-0.4047 -7.662111,-0.38281 z"
       id="path6"
       inkscape:connector-curvature="0" />
    <path
       style="fill:#ffffff"
       d="m 161.29688,348.72266 c -49.74304,0.88162 -99.600347,-0.50875 -149.279302,0.5957 -8.0489691,2.41201 -7.9096364,16.85382 1.38086,17.25586 10.555014,1.43689 21.24993,-0.58403 31.859305,0.3324 41.883882,-0.3558 83.917917,0.99851 125.705147,-0.75818 7.29555,-3.30415 6.02871,-16.74571 -2.75586,-16.91602 -2.27107,-0.46206 -4.59906,-0.54308 -6.91015,-0.50976 z"
       id="path8"
       inkscape:connector-curvature="0" />
    <path
       style="fill:#ffffff"
       d="m 337.875,412.71289 c -42.77789,0.70662 -85.56929,-0.0735 -128.35352,0.24995 -65.85884,0.13195 -131.794432,-0.42987 -197.605464,0.37505 -8.0238391,2.54443 -7.6615144,16.96031 1.482422,17.23633 10.558911,1.42175 21.257717,-0.5884 31.871085,0.36126 100.287807,-0.2803 200.638027,0.64519 300.886727,-0.49407 7.98469,-2.70126 7.07166,-17.10494 -2.08594,-17.24805 -2.03541,-0.42311 -4.12222,-0.50792 -6.19531,-0.48047 z"
       id="path10"
       inkscape:connector-curvature="0" />
  </g>
</svg>
